<svg width="93" height="93" viewBox="0 0 93 93" fill="none" xmlns="http://www.w3.org/2000/svg">
<path d="M41.4516 4.10679C44.3922 1.7147 48.6078 1.7147 51.5484 4.10679L53.9502 6.06058C55.7186 7.49919 58.0168 8.115 60.2677 7.75335L63.3245 7.2622C67.0672 6.66087 70.7181 8.76872 72.0687 12.3106L73.1717 15.2035C73.984 17.3336 75.6664 19.016 77.7965 19.8283L80.6894 20.9313C84.2313 22.2819 86.3391 25.9328 85.7378 29.6754L85.2466 32.7323C84.885 34.9832 85.5008 37.2814 86.9394 39.0498L88.8932 41.4516C91.2853 44.3922 91.2853 48.6078 88.8932 51.5484L86.9394 53.9502C85.5008 55.7186 84.885 58.0168 85.2466 60.2677L85.7378 63.3246C86.3391 67.0672 84.2313 70.7181 80.6894 72.0687L77.7965 73.1717C75.6664 73.984 73.984 75.6664 73.1717 77.7965L72.0687 80.6894C70.7181 84.2313 67.0672 86.3391 63.3246 85.7378L60.2677 85.2466C58.0168 84.885 55.7186 85.5008 53.9502 86.9394L51.5484 88.8932C48.6078 91.2853 44.3922 91.2853 41.4516 88.8932L39.0498 86.9394C37.2814 85.5008 34.9832 84.885 32.7323 85.2466L29.6754 85.7378C25.9328 86.3391 22.2819 84.2313 20.9313 80.6894L19.8283 77.7965C19.016 75.6664 17.3336 73.984 15.2035 73.1717L12.3106 72.0687C8.76872 70.7181 6.66087 67.0672 7.2622 63.3245L7.75335 60.2677C8.115 58.0168 7.49919 55.7186 6.06058 53.9502L4.10679 51.5484C1.7147 48.6078 1.7147 44.3922 4.10679 41.4516L6.06058 39.0498C7.49919 37.2814 8.115 34.9832 7.75335 32.7323L7.2622 29.6754C6.66087 25.9328 8.76872 22.2819 12.3106 20.9313L15.2035 19.8283C17.3336 19.016 19.016 17.3336 19.8283 15.2035L20.9313 12.3106C22.2819 8.76872 25.9328 6.66087 29.6754 7.2622L32.7323 7.75335C34.9832 8.115 37.2814 7.49919 39.0498 6.06058L41.4516 4.10679Z" fill="#3BD347"/>
<path d="M41.4516 4.10679C44.3922 1.7147 48.6078 1.7147 51.5484 4.10679L53.9502 6.06058C55.7186 7.49919 58.0168 8.115 60.2677 7.75335L63.3245 7.2622C67.0672 6.66087 70.7181 8.76872 72.0687 12.3106L73.1717 15.2035C73.984 17.3336 75.6664 19.016 77.7965 19.8283L80.6894 20.9313C84.2313 22.2819 86.3391 25.9328 85.7378 29.6754L85.2466 32.7323C84.885 34.9832 85.5008 37.2814 86.9394 39.0498L88.8932 41.4516C91.2853 44.3922 91.2853 48.6078 88.8932 51.5484L86.9394 53.9502C85.5008 55.7186 84.885 58.0168 85.2466 60.2677L85.7378 63.3246C86.3391 67.0672 84.2313 70.7181 80.6894 72.0687L77.7965 73.1717C75.6664 73.984 73.984 75.6664 73.1717 77.7965L72.0687 80.6894C70.7181 84.2313 67.0672 86.3391 63.3246 85.7378L60.2677 85.2466C58.0168 84.885 55.7186 85.5008 53.9502 86.9394L51.5484 88.8932C48.6078 91.2853 44.3922 91.2853 41.4516 88.8932L39.0498 86.9394C37.2814 85.5008 34.9832 84.885 32.7323 85.2466L29.6754 85.7378C25.9328 86.3391 22.2819 84.2313 20.9313 80.6894L19.8283 77.7965C19.016 75.6664 17.3336 73.984 15.2035 73.1717L12.3106 72.0687C8.76872 70.7181 6.66087 67.0672 7.2622 63.3245L7.75335 60.2677C8.115 58.0168 7.49919 55.7186 6.06058 53.9502L4.10679 51.5484C1.7147 48.6078 1.7147 44.3922 4.10679 41.4516L6.06058 39.0498C7.49919 37.2814 8.115 34.9832 7.75335 32.7323L7.2622 29.6754C6.66087 25.9328 8.76872 22.2819 12.3106 20.9313L15.2035 19.8283C17.3336 19.016 19.016 17.3336 19.8283 15.2035L20.9313 12.3106C22.2819 8.76872 25.9328 6.66087 29.6754 7.2622L32.7323 7.75335C34.9832 8.115 37.2814 7.49919 39.0498 6.06058L41.4516 4.10679Z" fill="url(#paint0_linear_240_7)" fill-opacity="0.2"/>
<path fill-rule="evenodd" clip-rule="evenodd" d="M40.6551 63.5604L68.5351 35.4246C70.4779 33.5268 70.4779 30.3208 68.5966 28.423C66.7189 26.5257 63.6074 26.5257 61.7261 28.423L37.2832 53.0914L30.2824 46.0246C28.4011 44.1272 25.2896 44.1272 23.4083 46.0246C21.5306 47.9219 21.5306 51.0631 23.4083 52.9604L33.781 63.5604C34.3743 64.1597 35.0654 64.5637 35.7926 64.7878C36.2557 64.9306 36.7368 65 37.218 65C38.4518 65 39.6819 64.5422 40.6551 63.5604Z" fill="#005301"/>
<defs>
<linearGradient id="paint0_linear_240_7" x1="38.5" y1="47" x2="53.5" y2="93" gradientUnits="userSpaceOnUse">
<stop offset="0.3125" stop-opacity="0"/>
<stop offset="1" stop-opacity="0.64"/>
</linearGradient>
</defs>
</svg>
